# xmcd
#
# Track frame offsets: 
#        150
#        17430
#        35766
#        58247
#        78518
#        98525
#        125267
#        148802
#        166566
#        189343
#        211850
#
# Disc length: 3039 seconds
#
# Revision: 0
# Processed by: cddbd v1.5.2PL0 Copyright (c) Steve Scherf et al.
# Submitted via: ExactAudioCopy v1.3
#
DISCID=880bdd0b
DTITLE=Chris Bevington and Friends - Better Start Cookin'
DYEAR=2016
DGENRE=Blues Rock
TTITLE0=61 and 49
TTITLE1=Better Start Cookin
TTITLE2=Bold As Love
TTITLE3=Boogie Man
TTITLE4=Call My Name
TTITLE5=Change The World
TTITLE6=Everyday I Have The Blues
TTITLE7=Express Train
TTITLE8=Old Friend
TTITLE9=Someone To Watch Over Me
TTITLE10=Still Haven't Seen You Cry
EXTD=
EXTT0=
EXTT1=
EXTT2=
EXTT3=
EXTT4=
EXTT5=
EXTT6=
EXTT7=
EXTT8=
EXTT9=
EXTT10=
PLAYORDER=
